<svg width="1920" height="1080" viewBox="0 0 1920 1080" fill="none" xmlns="http://www.w3.org/2000/svg">
<path fill-rule="evenodd" clip-rule="evenodd" d="M1703.7 1080H1792V511.849C1791.76 459.87 1782.53 357.71 1720.4 275.942C1635.4 163.546 1487.07 137.076 1480.83 135.997L1435.01 128L1430.27 174.462C1429.64 180.819 1415.4 331.56 1500.36 443.956C1561.26 524.404 1654.57 560.83 1704.97 575.424L1703.7 1080ZM1517.26 236.677C1520.65 280.1 1532.46 341.956 1569.65 391.097C1607.12 440.637 1663.28 468.546 1703.7 483.26C1700.32 439.837 1688.5 377.742 1651.31 328.641C1614.12 279.54 1557.96 251.551 1517.26 236.677Z" fill="#00463C"/>
<path d="M1257 -2.01852C1254.68 0.630223 1252.13 2.50077 1249.35 3.59312C1246.54 4.70954 1243.7 4.96652 1240.83 4.36406C1237.95 3.80674 1235.25 2.42162 1232.73 0.208687C1230.2 -2.00425 1228.47 -4.49703 1227.53 -7.26965C1226.6 -9.99712 1226.51 -12.8253 1227.24 -15.7542C1227.96 -18.6591 1229.47 -21.4359 1231.79 -24.0846L1239.5 -32.8977L1264.72 -10.8316L1257 -2.01852ZM1236.25 -20.5032C1233.93 -17.8545 1232.86 -15.1755 1233.04 -12.4662C1233.22 -9.75687 1234.62 -7.2536 1237.25 -4.95636C1239.87 -2.65913 1242.55 -1.59009 1245.28 -1.74925C1248.04 -1.88733 1250.58 -3.28074 1252.9 -5.92949L1256.03 -9.50529L1239.38 -24.079L1236.25 -20.5032Z" fill="#00463C"/>
<path d="M1207.15 11.9784L1216.32 2.28178L1213.2 -3.70844L1218.04 -8.83581L1234.15 22.9689L1228.77 28.6544L1196.11 14.3594L1200.99 9.19718L1207.15 11.9784ZM1212.31 14.3462L1225.83 20.4522L1218.97 7.30047L1212.31 14.3462Z" fill="#00463C"/>
<path d="M1185.51 71.8771L1171.27 39.1544L1177.17 33.5213L1209.19 49.2782L1203.98 54.2486L1178.92 41.337L1190.68 66.9398L1185.51 71.8771Z" fill="#00463C"/>
<path d="M1176.6 79.1919L1154.13 54.3418L1159.11 49.8345L1181.58 74.6846L1176.6 79.1919Z" fill="#00463C"/>
<path d="M1128.4 75.8252L1133.79 71.8096L1159.73 81.1527L1145.99 62.7172L1151.38 58.7016L1171.43 85.6044L1166.04 89.62L1140.07 80.2384L1153.84 98.7125L1148.45 102.728L1128.4 75.8252Z" fill="#00463C"/>
<path d="M1136.28 89.4545C1137.45 92.536 1137.81 95.5495 1137.35 98.4952C1136.88 101.482 1135.7 104.103 1133.82 106.358C1131.92 108.654 1129.47 110.37 1126.48 111.505C1122.98 112.834 1119.57 113.1 1116.26 112.304C1112.94 111.509 1110.16 109.724 1107.91 106.95L1115.14 104.208C1116.42 105.431 1117.86 106.167 1119.46 106.415C1121.03 106.675 1122.67 106.481 1124.38 105.834C1126.2 105.141 1127.67 104.088 1128.78 102.676C1129.86 101.304 1130.52 99.6874 1130.73 97.8251C1130.92 95.9741 1130.62 94.0015 1129.82 91.9073C1129.04 89.843 1127.96 88.1657 1126.58 86.8753C1125.18 85.6262 1123.61 84.8347 1121.88 84.5008C1120.12 84.2082 1118.33 84.4083 1116.51 85.101C1114.8 85.7482 1113.45 86.69 1112.45 87.9262C1111.43 89.2037 1110.84 90.7267 1110.69 92.4951L1103.46 95.2375C1103.3 91.6389 1104.19 88.4424 1106.14 85.6481C1108.07 82.895 1110.8 80.8485 1114.33 79.5085C1117.33 78.3729 1120.29 78.0184 1123.22 78.4448C1126.14 78.9126 1128.76 80.0912 1131.09 81.9808C1133.38 83.8818 1135.11 86.373 1136.28 89.4545Z" fill="#00463C"/>
<path d="M1098.68 119.178L1091.2 86.5175L1097.75 85.0189L1105.23 117.679L1098.68 119.178Z" fill="#00463C"/>
<path d="M1068.48 123.892C1064.97 124.199 1061.83 123.782 1059.07 122.642C1056.27 121.505 1054.04 119.725 1052.38 117.3C1050.7 114.909 1049.71 112.04 1049.42 108.693C1049.12 105.346 1049.6 102.349 1050.85 99.7026C1052.07 97.0908 1053.95 94.9825 1056.51 93.3778C1059.04 91.7759 1062.05 90.8217 1065.56 90.5154L1077.23 89.4962L1080.14 122.873L1068.48 123.892ZM1066.3 96.1848C1062.79 96.4912 1060.16 97.6842 1058.42 99.764C1056.67 101.844 1055.95 104.621 1056.25 108.096C1056.56 111.571 1057.75 114.197 1059.83 115.974C1061.92 117.784 1064.72 118.535 1068.22 118.229L1072.96 117.815L1071.03 95.7713L1066.3 96.1848Z" fill="#00463C"/>
<path d="M1022.75 98.426L1036.1 98.4029L1038.29 92.015L1045.35 92.0028L1033.36 125.576L1025.53 125.589L1013.43 92.0582L1020.53 92.0459L1022.75 98.426ZM1024.58 103.799L1029.46 117.806L1034.28 103.782L1024.58 103.799Z" fill="#00463C"/>
<path d="M965.326 122.027L980.072 89.5296L988.209 90.1365L997.972 124.462L990.792 123.926L983.582 96.6745L972.459 122.559L965.326 122.027Z" fill="#00463C"/>
<path d="M954.177 120.525L957.588 87.1955L964.273 87.8796L960.862 121.21L954.177 120.525Z" fill="#00463C"/>
<path d="M922.764 83.4224L929.434 84.2405L941.738 108.914L944.537 86.0929L951.207 86.911L947.123 120.213L940.453 119.395L928.155 94.6743L925.35 117.543L918.68 116.725L922.764 83.4224Z" fill="#00463C"/>
<path d="M915.685 98.8661C915.218 102.129 914.071 104.939 912.247 107.296C910.386 109.68 908.086 111.403 905.348 112.465C902.573 113.555 899.602 113.873 896.434 113.419C892.728 112.888 889.617 111.472 887.102 109.172C884.587 106.872 883.016 103.964 882.388 100.447L890.038 101.543C890.571 103.236 891.478 104.578 892.758 105.57C894.007 106.557 895.534 107.18 897.34 107.439C899.272 107.715 901.064 107.504 902.716 106.803C904.332 106.129 905.686 105.03 906.777 103.505C907.837 101.976 908.525 100.103 908.843 97.8857C909.156 95.7 909.021 93.7087 908.438 91.9119C907.819 90.1421 906.831 88.6913 905.474 87.5593C904.08 86.4545 902.417 85.7637 900.485 85.4868C898.68 85.2281 897.039 85.3971 895.563 85.9938C894.052 86.6177 892.802 87.6671 891.815 89.142L884.165 88.0458C885.76 84.8153 888.087 82.4495 891.146 80.9483C894.17 79.4743 897.551 79.0051 901.289 79.5407C904.456 79.9946 907.221 81.1181 909.582 82.9112C911.908 84.7314 913.631 87.0311 914.752 89.8102C915.842 92.5848 916.153 95.6034 915.685 98.8661Z" fill="#00463C"/>
<path d="M867.936 109.117L872.955 75.9908L879.599 76.9975L874.58 110.123L867.936 109.117Z" fill="#00463C"/>
<path d="M837.087 104.323C833.609 103.782 830.663 102.628 828.25 100.861C825.805 99.0882 824.068 96.8265 823.038 94.0757C821.972 91.3516 821.697 88.3295 822.213 85.0094C822.729 81.6893 823.908 78.8932 825.751 76.6213C827.557 74.3761 829.894 72.78 832.762 71.8332C835.598 70.8814 838.755 70.6758 842.233 71.2165L853.806 73.0152L848.66 106.122L837.087 104.323ZM841.593 76.8976C838.115 76.3569 835.279 76.8878 833.087 78.4901C830.895 80.0925 829.531 82.617 828.996 86.0636C828.46 89.5102 828.991 92.3454 830.588 94.5691C832.181 96.8244 834.716 98.2224 838.194 98.763L842.89 99.4928L846.288 77.6274L841.593 76.8976Z" fill="#00463C"/>
<path d="M797.271 71.2553L810.468 73.2368L813.599 67.2515L820.577 68.2993L803.68 99.6902L795.943 98.5284L789.011 63.5593L796.036 64.6142L797.271 71.2553ZM798.277 76.8426L800.99 91.4231L807.865 78.2824L798.277 76.8426Z" fill="#00463C"/>
<path d="M735.2 90.4424L751.524 58.7087L759.622 59.7146L767.686 94.4778L760.541 93.5902L754.679 66.0173L742.297 91.324L735.2 90.4424Z" fill="#00463C"/>
<path d="M724.155 88.5383L727.517 55.2034L734.203 55.8778L730.841 89.2127L724.155 88.5383Z" fill="#00463C"/>
<path d="M690.857 53.0076L697.563 53.4428L711.258 77.372L712.747 54.4283L719.453 54.8635L717.28 88.3451L710.574 87.9098L696.882 63.9328L695.39 86.9244L688.684 86.4892L690.857 53.0076Z" fill="#00463C"/>
<path d="M682.658 68.8384C682.72 72.1338 682.039 75.0911 680.616 77.7102C679.161 80.3619 677.168 82.4315 674.635 83.9192C672.071 85.4395 669.189 86.2295 665.99 86.2894C662.247 86.3595 658.949 85.4611 656.098 83.5941C653.246 81.7272 651.229 79.1085 650.046 75.738L657.772 75.5934C658.57 77.1787 659.68 78.3582 661.103 79.1317C662.494 79.9058 664.101 80.2757 665.925 80.2416C667.876 80.2051 669.611 79.7085 671.13 78.7519C672.617 77.8279 673.777 76.526 674.609 74.8461C675.41 73.1668 675.789 71.2074 675.747 68.9678C675.706 66.7601 675.254 64.8163 674.39 63.1361C673.495 61.4886 672.287 60.215 670.766 59.3153C669.213 58.4482 667.461 58.0329 665.51 58.0695C663.686 58.1036 662.094 58.5335 660.733 59.3591C659.341 60.2173 658.276 61.4535 657.538 63.0676L649.811 63.2122C650.867 59.7679 652.784 57.0595 655.564 55.0871C658.312 53.1473 661.574 52.1421 665.349 52.0714C668.549 52.0115 671.458 52.6772 674.076 54.0684C676.663 55.4923 678.733 57.4859 680.285 60.0493C681.805 62.6132 682.596 65.543 682.658 68.8384Z" fill="#00463C"/>
<path d="M638.024 88.8136L634.107 55.5393L640.781 54.7538L644.698 88.028L638.024 88.8136Z" fill="#00463C"/>
<path d="M606.791 96.2895C603.463 97.4368 600.32 97.7929 597.36 97.3578C594.37 96.9331 591.778 95.7453 589.582 93.7945C587.366 91.8843 585.711 89.341 584.616 86.1645C583.52 82.988 583.257 79.9649 583.824 77.0952C584.372 74.2661 585.692 71.7631 587.785 69.5861C589.847 67.4195 592.543 65.7625 595.87 64.6152L606.943 60.7977L617.863 92.472L606.791 96.2895ZM597.959 69.937C594.631 71.0844 592.373 72.8785 591.183 75.3195C589.994 77.7605 589.968 80.6297 591.105 83.9272C592.242 87.2247 594.036 89.4833 596.487 90.7028C598.949 91.9527 601.844 92.0039 605.172 90.8566L609.664 89.3077L602.452 68.3881L597.959 69.937Z" fill="#00463C"/>
<path d="M553.66 89.7496L565.572 83.7346L564.665 77.0407L570.963 73.8601L575.333 109.241L568.349 112.768L542.47 88.2485L548.812 85.0462L553.66 89.7496ZM557.712 93.7262L568.357 104.052L566.367 89.3556L557.712 93.7262Z" fill="#00463C"/>
<path d="M518.236 145.751L507.925 111.586L514.448 106.683L544.403 126.08L538.647 130.406L515.273 114.65L523.953 141.453L518.236 145.751Z" fill="#00463C"/>
<path d="M510.535 153.497L487.631 129.044L492.536 124.451L515.439 148.903L510.535 153.497Z" fill="#00463C"/>
<path d="M461.438 159.067L465.743 153.907L493.146 156.952L475.491 142.223L479.796 137.063L505.559 158.557L501.254 163.717L473.815 160.641L491.506 175.401L487.201 180.561L461.438 159.067Z" fill="#00463C"/>
<path d="M468.415 177.373C471.35 178.873 473.637 180.867 475.276 183.357C476.929 185.89 477.814 188.624 477.932 191.559C478.064 194.537 477.402 197.451 475.946 200.3C474.243 203.635 471.896 206.119 468.905 207.753C465.915 209.388 462.654 209.932 459.124 209.387L462.639 202.505C464.413 202.548 465.977 202.125 467.33 201.235C468.668 200.374 469.752 199.131 470.582 197.507C471.47 195.768 471.85 194.004 471.722 192.214C471.608 190.467 471.007 188.83 469.918 187.304C468.815 185.806 467.266 184.548 465.271 183.529C463.305 182.524 461.377 182.007 459.488 181.976C457.613 181.989 455.921 182.454 454.41 183.371C452.913 184.331 451.721 185.681 450.833 187.419C450.003 189.044 449.632 190.65 449.718 192.24C449.819 193.872 450.407 195.394 451.482 196.806L447.967 203.688C445.427 201.133 443.943 198.165 443.514 194.784C443.099 191.446 443.75 188.095 445.468 184.733C446.924 181.883 448.882 179.631 451.344 177.978C453.819 176.368 456.553 175.483 459.545 175.322C462.523 175.19 465.48 175.874 468.415 177.373Z" fill="#00463C"/>
<path d="M466.13 225.72L434.057 216.036L435.999 209.603L468.073 219.287L466.13 225.72Z" fill="#00463C"/>
<path d="M461.315 256.14C461.272 259.66 460.546 262.739 459.137 265.378C457.728 268.049 455.734 270.088 453.157 271.496C450.611 272.937 447.658 273.637 444.298 273.595C440.938 273.553 438.004 272.781 435.494 271.278C433.016 269.807 431.106 267.719 429.763 265.014C428.42 262.342 427.77 259.245 427.814 255.726L427.959 244.014L461.46 244.429L461.315 256.14ZM433.529 255.556C433.485 259.076 434.411 261.808 436.307 263.751C438.203 265.695 440.895 266.688 444.383 266.731C447.871 266.775 450.602 265.848 452.578 263.953C454.586 262.057 455.611 259.35 455.655 255.83L455.714 251.079L433.587 250.805L433.529 255.556Z" fill="#00463C"/>
<path d="M441.203 306.25L438.078 293.277L431.355 292.625L429.702 285.766L465.143 289.621L466.975 297.228L437.177 316.798L435.514 309.892L441.203 306.25ZM446.002 303.218L458.493 295.222L443.732 293.791L446.002 303.218Z" fill="#00463C"/>
<path d="M485.035 355.333L449.563 351.429L447.608 343.507L477.192 323.55L478.917 330.54L455.261 345.87L483.321 348.389L485.035 355.333Z" fill="#00463C"/>
<path d="M484.987 366.998L451.518 368.513L451.213 361.8L484.683 360.284L484.987 366.998Z" fill="#00463C"/>
<path d="M448.221 398.835L449.09 392.171L473.858 380.059L451.06 377.083L451.93 370.42L485.199 374.763L484.33 381.426L459.514 393.532L482.36 396.514L481.49 403.178L448.221 398.835Z" fill="#00463C"/>
<path d="M463.986 404.299C467.095 405.393 469.628 407.065 471.584 409.314C473.56 411.604 474.802 414.196 475.31 417.088C475.838 420.022 475.571 422.998 474.508 426.017C473.265 429.548 471.27 432.323 468.524 434.342C465.778 436.361 462.62 437.335 459.048 437.266L461.614 429.976C463.378 429.783 464.871 429.155 466.094 428.092C467.305 427.06 468.214 425.684 468.819 423.963C469.467 422.122 469.609 420.323 469.243 418.566C468.898 416.85 468.083 415.308 466.801 413.94C465.507 412.603 463.804 411.563 461.691 410.819C459.609 410.086 457.629 409.83 455.753 410.052C453.897 410.314 452.281 411.001 450.906 412.111C449.551 413.262 448.549 414.759 447.901 416.6C447.296 418.321 447.142 419.963 447.44 421.526C447.757 423.131 448.543 424.561 449.797 425.816L447.231 433.106C444.373 430.912 442.506 428.169 441.63 424.875C440.773 421.622 440.972 418.215 442.226 414.653C443.288 411.635 444.929 409.142 447.148 407.175C449.386 405.249 451.978 404.007 454.922 403.449C457.856 402.921 460.877 403.205 463.986 404.299Z" fill="#00463C"/>
<path d="M463.451 452.053L433.252 437.542L436.162 431.485L466.361 445.996L463.451 452.053Z" fill="#00463C"/>
<path d="M447.498 478.953C445.581 481.906 443.322 484.121 440.721 485.599C438.103 487.103 435.329 487.763 432.397 487.576C429.476 487.433 426.606 486.447 423.788 484.617C420.97 482.787 418.902 480.566 417.583 477.955C416.274 475.388 415.775 472.602 416.085 469.599C416.378 466.622 417.483 463.657 419.4 460.705L425.779 450.883L453.877 469.131L447.498 478.953ZM424.321 463.615C422.404 466.567 421.727 469.371 422.292 472.027C422.856 474.683 424.601 476.961 427.526 478.861C430.452 480.76 433.256 481.437 435.938 480.89C438.648 480.36 440.962 478.619 442.879 475.667L445.467 471.682L426.909 459.63L424.321 463.615Z" fill="#00463C"/>
<path d="M399.447 498.579L407.849 488.212L404.28 482.477L408.722 476.995L427.202 507.481L422.276 513.559L388.624 501.793L393.097 496.274L399.447 498.579ZM404.772 500.547L418.713 505.605L410.877 493.014L404.772 500.547Z" fill="#00463C"/>
<path d="M380.627 557.198L366.085 524.609L371.935 518.921L404.1 534.379L398.937 539.398L373.76 526.72L385.756 552.212L380.627 557.198Z" fill="#00463C"/>
<path d="M371.675 564.858L349.684 539.582L354.754 535.171L376.745 560.448L371.675 564.858Z" fill="#00463C"/>
<path d="M323.007 560.991L328.309 556.862L354.441 565.651L340.313 547.512L345.615 543.382L366.232 569.853L360.93 573.982L334.768 565.155L348.926 583.332L343.624 587.461L323.007 560.991Z" fill="#00463C"/>
<path d="M330.439 575.86C332.245 578.617 333.241 581.484 333.43 584.458C333.609 587.478 333.022 590.291 331.669 592.898C330.306 595.549 328.287 597.751 325.609 599.504C322.477 601.555 319.207 602.548 315.799 602.484C312.392 602.42 309.29 601.276 306.495 599.052L312.961 594.819C314.48 595.737 316.047 596.145 317.663 596.043C319.253 595.958 320.811 595.417 322.337 594.418C323.97 593.348 325.175 592.005 325.951 590.387C326.719 588.814 327.008 587.094 326.82 585.229C326.604 583.381 325.883 581.52 324.656 579.646C323.447 577.799 322.03 576.393 320.405 575.43C318.77 574.511 317.07 574.075 315.303 574.123C313.527 574.215 311.823 574.795 310.19 575.864C308.664 576.863 307.544 578.074 306.831 579.497C306.109 580.965 305.865 582.578 306.098 584.337L299.633 588.57C298.694 585.092 298.877 581.779 300.182 578.63C301.477 575.525 303.704 572.939 306.863 570.871C309.54 569.118 312.358 568.134 315.315 567.919C318.263 567.748 321.076 568.335 323.754 569.68C326.405 571.042 328.634 573.102 330.439 575.86Z" fill="#00463C"/>
<path d="M300.817 614.556L284.183 585.473L290.017 582.137L306.65 611.22L300.817 614.556Z" fill="#00463C"/>
<path d="M272.101 629.007C268.887 630.441 265.787 631.072 262.8 630.898C259.785 630.737 257.098 629.781 254.74 628.03C252.365 626.321 250.493 623.933 249.124 620.864C247.755 617.796 247.227 614.808 247.541 611.899C247.838 609.033 248.934 606.424 250.828 604.072C252.693 601.733 255.232 599.846 258.446 598.412L269.142 593.638L282.796 624.233L272.101 629.007ZM260.994 603.53C257.779 604.964 255.687 606.95 254.716 609.485C253.745 612.021 253.97 614.882 255.392 618.067C256.814 621.252 258.799 623.345 261.348 624.345C263.91 625.374 266.798 625.171 270.012 623.737L274.351 621.8L265.333 601.593L260.994 603.53Z" fill="#00463C"/>
<path d="M222.328 618.69L235.042 614.638L235.207 607.885L241.93 605.743L240.639 641.369L233.185 643.745L211.517 615.436L218.286 613.278L222.328 618.69ZM225.698 623.259L234.574 635.141L234.937 620.314L225.698 623.259Z" fill="#00463C"/>
<path d="M172.993 653.59L182.235 619.121L190.362 618.391L205.598 650.661L198.427 651.305L186.865 625.597L180.117 652.95L172.993 653.59Z" fill="#00463C"/>
<path d="M161.689 651.814L164.037 618.393L170.74 618.863L168.392 652.285L161.689 651.814Z" fill="#00463C"/>
<path d="M124.85 616.886L131.57 616.91L146.705 639.956L146.786 616.964L153.506 616.987L153.387 650.539L146.667 650.515L131.533 627.422L131.452 650.462L124.732 650.438L124.85 616.886Z" fill="#00463C"/>
<path d="M117.019 634.328C117.467 637.594 117.138 640.61 116.032 643.378C114.898 646.182 113.161 648.471 110.82 650.246C108.452 652.056 105.683 653.179 102.513 653.614C98.8037 654.122 95.4237 653.617 92.3729 652.097C89.3222 650.578 87.0116 648.214 85.4411 645.005L93.0975 643.955C94.0757 645.436 95.3167 646.477 96.8203 647.079C98.2922 647.684 99.9317 647.863 101.739 647.615C103.673 647.35 105.338 646.653 106.733 645.525C108.102 644.433 109.101 643.004 109.731 641.238C110.329 639.477 110.476 637.486 110.171 635.267C109.871 633.08 109.194 631.202 108.139 629.635C107.057 628.104 105.708 626.981 104.092 626.266C102.449 625.587 100.66 625.38 98.726 625.645C96.9189 625.893 95.3881 626.506 94.1335 627.486C92.8516 628.502 91.9389 629.854 91.3954 631.544L83.739 632.594C84.3835 629.049 85.9702 626.135 88.4992 623.85C91.0009 621.601 94.1222 620.22 97.8632 619.707C101.034 619.272 104.001 619.592 106.764 620.667C109.5 621.777 111.79 623.514 113.632 625.878C115.442 628.246 116.571 631.063 117.019 634.328Z" fill="#00463C"/>
<path d="M74.5596 659.31L66.7659 626.725L73.3015 625.162L81.0953 657.747L74.5596 659.31Z" fill="#00463C"/>
<path d="M45.4218 668.154C42.1485 669.448 39.0239 669.944 36.048 669.641C33.0423 669.35 30.3992 668.279 28.1187 666.428C25.8202 664.619 24.0531 662.152 22.8174 659.027C21.5818 655.903 21.1836 652.894 21.6227 650.002C22.0439 647.151 23.2513 644.592 25.2449 642.324C27.2088 640.068 29.8274 638.292 33.1007 636.998L43.992 632.691L56.3131 663.847L45.4218 668.154ZM35.4245 642.221C32.1512 643.516 29.9748 645.409 28.8954 647.9C27.8161 650.392 27.9177 653.259 29.2004 656.503C30.4832 659.747 32.3762 661.923 34.8795 663.032C37.3945 664.171 40.2887 664.093 43.5621 662.799L47.9811 661.051L39.8435 640.474L35.4245 642.221Z" fill="#00463C"/>
<path d="M-7.45057 664.541L4.18605 658.01L2.98709 651.362L9.14027 647.909L15.0548 683.065L8.23188 686.894L-18.6955 663.531L-12.5005 660.055L-7.45057 664.541ZM-3.22884 668.337L7.85854 678.186L5.22655 663.591L-3.22884 668.337Z" fill="#00463C"/>
<path d="M12.825 1015.16C16.0921 1016.47 18.7022 1018.25 20.6552 1020.52C22.638 1022.8 23.8212 1025.39 24.205 1028.3C24.6303 1031.2 24.2178 1034.21 22.9672 1037.32C21.7167 1040.44 19.9378 1042.9 17.6307 1044.7C15.3651 1046.48 12.7289 1047.51 9.72186 1047.79C6.74454 1048.07 3.62232 1047.56 0.35521 1046.25L-10.5154 1041.89L1.95438 1010.8L12.825 1015.16ZM2.25839 1040.86C5.5255 1042.17 8.40739 1042.29 10.9041 1041.23C13.4007 1040.16 15.2981 1038.01 16.5963 1034.77C17.8945 1031.53 18.0158 1028.65 16.9603 1026.12C15.9166 1023.57 13.7613 1021.63 10.4941 1020.32L6.08353 1018.56L-2.15222 1039.09L2.25839 1040.86Z" fill="#00463C"/>
<path d="M49.5107 1055.47L36.6266 1052L32.833 1057.59L26.0203 1055.75L46.3863 1026.49L53.9406 1028.53L56.84 1064.06L49.9809 1062.21L49.5107 1055.47ZM49.1489 1049.81L48.1162 1035.01L39.7871 1047.29L49.1489 1049.81Z" fill="#00463C"/>
<path d="M111.374 1039.27L94.3391 1070.63L86.2661 1069.44L78.9871 1034.5L86.1104 1035.55L91.3495 1063.25L104.298 1038.23L111.374 1039.27Z" fill="#00463C"/>
<path d="M123.929 1039.41L120.748 1072.77L114.059 1072.13L117.24 1038.78L123.929 1039.41Z" fill="#00463C"/>
<path d="M156.761 1075.63L150.05 1075.28L136.059 1051.52L134.855 1074.48L128.144 1074.13L129.902 1040.62L136.612 1040.97L150.601 1064.78L151.808 1041.77L158.518 1042.12L156.761 1075.63Z" fill="#00463C"/>
<path d="M165.899 1059.19C165.884 1055.9 166.607 1052.95 168.067 1050.35C169.559 1047.72 171.582 1045.68 174.135 1044.23C176.721 1042.74 179.613 1041.99 182.813 1041.98C186.557 1041.96 189.842 1042.91 192.666 1044.81C195.491 1046.72 197.471 1049.37 198.606 1052.76L190.878 1052.79C190.103 1051.19 189.01 1050 187.598 1049.21C186.219 1048.41 184.617 1048.02 182.793 1048.03C180.841 1048.04 179.099 1048.51 177.567 1049.44C176.067 1050.35 174.889 1051.63 174.032 1053.3C173.208 1054.97 172.801 1056.92 172.811 1059.16C172.821 1061.37 173.246 1063.32 174.085 1065.01C174.957 1066.67 176.147 1067.96 177.655 1068.88C179.195 1069.77 180.941 1070.21 182.893 1070.2C184.717 1070.19 186.315 1069.79 187.687 1068.98C189.092 1068.14 190.174 1066.92 190.935 1065.32L198.663 1065.28C197.558 1068.71 195.602 1071.39 192.795 1073.33C190.02 1075.23 186.744 1076.19 182.968 1076.2C179.768 1076.22 176.869 1075.51 174.27 1074.08C171.704 1072.62 169.662 1070.6 168.147 1068.01C166.663 1065.43 165.914 1062.49 165.899 1059.19Z" fill="#00463C"/>
<path d="M209.887 1042.1L211.138 1075.58L204.423 1075.83L203.171 1042.35L209.887 1042.1Z" fill="#00463C"/>
<path d="M240.464 1040.18C243.972 1039.89 247.106 1040.32 249.867 1041.48C252.659 1042.63 254.878 1044.42 256.525 1046.85C258.2 1049.25 259.176 1052.12 259.453 1055.47C259.731 1058.82 259.24 1061.81 257.981 1064.45C256.752 1067.06 254.855 1069.16 252.289 1070.75C249.756 1072.34 246.735 1073.28 243.227 1073.57L231.555 1074.54L228.792 1041.15L240.464 1040.18ZM242.517 1067.9C246.025 1067.61 248.657 1066.43 250.412 1064.36C252.167 1062.29 252.901 1059.51 252.613 1056.04C252.325 1052.56 251.144 1049.93 249.07 1048.14C246.993 1046.32 244.2 1045.56 240.692 1045.85L235.956 1046.24L237.781 1068.29L242.517 1067.9Z" fill="#00463C"/>
<path d="M290.171 1062.28L276.93 1063.94L275.535 1070.55L268.533 1071.43L276.31 1036.64L284.073 1035.67L300.205 1067.46L293.156 1068.34L290.171 1062.28ZM287.691 1057.17L281.136 1043.87L278.071 1058.38L287.691 1057.17Z" fill="#00463C"/>
<path d="M342.897 1025.19L336.818 1060.35L328.79 1061.82L310.692 1031.06L317.775 1029.77L331.62 1054.33L335.861 1026.47L342.897 1025.19Z" fill="#00463C"/>
<path d="M353.18 1022.98L360.253 1055.73L353.685 1057.15L346.611 1024.4L353.18 1022.98Z" fill="#00463C"/>
<path d="M398.374 1046.3L391.871 1048L371.351 1029.58L377.146 1051.83L370.643 1053.53L362.187 1021.06L368.69 1019.36L389.221 1037.83L383.415 1015.53L389.918 1013.84L398.374 1046.3Z" fill="#00463C"/>
<path d="M400.028 1029.4C398.825 1026.34 398.435 1023.33 398.859 1020.38C399.301 1017.38 400.451 1014.75 402.308 1012.47C404.184 1010.16 406.611 1008.42 409.591 1007.25C413.076 1005.88 416.48 1005.58 419.803 1006.34C423.125 1007.1 425.927 1008.85 428.208 1011.6L421.014 1014.42C419.715 1013.21 418.264 1012.49 416.661 1012.26C415.088 1012.02 413.452 1012.23 411.754 1012.9C409.937 1013.61 408.483 1014.68 407.391 1016.1C406.318 1017.48 405.683 1019.11 405.487 1020.97C405.32 1022.83 405.645 1024.8 406.463 1026.88C407.269 1028.94 408.369 1030.6 409.763 1031.88C411.175 1033.11 412.75 1033.88 414.489 1034.2C416.246 1034.47 418.033 1034.25 419.851 1033.54C421.549 1032.87 422.892 1031.92 423.881 1030.67C424.888 1029.38 425.457 1027.85 425.588 1026.08L432.782 1023.26C432.99 1026.86 432.133 1030.06 430.213 1032.88C428.31 1035.65 425.601 1037.73 422.086 1039.11C419.107 1040.28 416.148 1040.66 413.209 1040.27C410.288 1039.83 407.655 1038.68 405.308 1036.82C402.991 1034.94 401.231 1032.47 400.028 1029.4Z" fill="#00463C"/>
<path d="M437.216 997.733L447.244 1029.7L440.832 1031.71L430.804 999.744L437.216 997.733Z" fill="#00463C"/>
<path d="M467.049 989.914C470.488 989.167 473.652 989.183 476.54 989.964C479.458 990.738 481.893 992.224 483.844 994.42C485.819 996.578 487.163 999.298 487.876 1002.58C488.589 1005.87 488.495 1008.9 487.593 1011.68C486.716 1014.43 485.11 1016.76 482.775 1018.67C480.471 1020.58 477.6 1021.91 474.16 1022.65L462.715 1025.14L455.604 992.4L467.049 989.914ZM472.713 1017.12C476.153 1016.38 478.607 1014.86 480.076 1012.58C481.545 1010.29 481.909 1007.45 481.168 1004.04C480.428 1000.63 478.913 998.176 476.622 996.676C474.325 995.145 471.456 994.752 468.016 995.5L463.373 996.508L468.069 1018.13L472.713 1017.12Z" fill="#00463C"/>
<path d="M516.169 1008.5L502.977 1010.51L501.756 1017.15L494.78 1018.22L501.637 983.232L509.372 982.054L526.336 1013.41L519.313 1014.48L516.169 1008.5ZM513.556 1003.46L506.652 990.334L503.97 1004.92L513.556 1003.46Z" fill="#00463C"/>
<path d="M569.971 975.519L560.622 1009.96L552.492 1010.66L537.357 978.346L544.53 977.724L556.012 1003.47L562.846 976.137L569.971 975.519Z" fill="#00463C"/>
<path d="M581.186 974.863L583.155 1008.31L576.447 1008.7L574.478 975.257L581.186 974.863Z" fill="#00463C"/>
<path d="M617.902 1006.9L611.186 1007.12L595.212 984.648L595.978 1007.63L589.262 1007.85L588.143 974.318L594.86 974.094L610.835 996.614L610.067 973.586L616.783 973.362L617.902 1006.9Z" fill="#00463C"/>
<path d="M620.764 990.2C620.763 986.904 621.499 983.96 622.97 981.367C624.474 978.743 626.505 976.711 629.065 975.27C631.657 973.798 634.553 973.061 637.753 973.06C641.497 973.06 644.777 974.019 647.593 975.939C650.41 977.858 652.378 980.514 653.499 983.906L645.771 983.907C645.002 982.307 643.914 981.107 642.506 980.308C641.13 979.508 639.53 979.108 637.706 979.108C635.754 979.109 634.01 979.573 632.474 980.501C630.97 981.398 629.787 982.678 628.923 984.342C628.091 986.006 627.676 987.958 627.676 990.198C627.676 992.406 628.093 994.358 628.925 996.054C629.789 997.718 630.974 999.014 632.478 999.941C634.014 1000.84 635.758 1001.28 637.71 1001.28C639.534 1001.28 641.134 1000.88 642.51 1000.08C643.918 999.251 645.005 998.035 645.773 996.435L653.501 996.434C652.382 999.858 650.414 1002.53 647.599 1004.45C644.815 1006.34 641.535 1007.28 637.759 1007.28C634.559 1007.29 631.663 1006.57 629.071 1005.13C626.51 1003.65 624.478 1001.62 622.974 999.031C621.501 996.44 620.765 993.496 620.764 990.2Z" fill="#00463C"/>
<path d="M667.042 973.713L666.33 1007.21L659.612 1007.07L660.324 973.57L667.042 973.713Z" fill="#00463C"/>
<path d="M699.574 975.247C703.09 975.423 706.139 976.266 708.723 977.773C711.338 979.282 713.301 981.351 714.611 983.98C715.954 986.579 716.541 989.556 716.373 992.912C716.204 996.268 715.321 999.171 713.724 1001.62C712.161 1004.04 710.002 1005.87 707.248 1007.11C704.527 1008.35 701.408 1008.89 697.892 1008.71L686.195 1008.12L687.877 974.659L699.574 975.247ZM697.939 1002.99C701.455 1003.17 704.22 1002.35 706.234 1000.52C708.248 998.704 709.342 996.051 709.517 992.568C709.692 989.084 708.87 986.319 707.05 984.273C705.232 982.195 702.566 981.068 699.05 980.892L694.304 980.653L693.193 1002.75L697.939 1002.99Z" fill="#00463C"/>
<path d="M740.99 1004.31L727.684 1003.31L725.004 1009.51L717.967 1008.98L732.496 976.428L740.298 977.014L749.798 1011.37L742.714 1010.84L740.99 1004.31ZM739.574 998.813L735.79 984.473L729.905 998.086L739.574 998.813Z" fill="#00463C"/>
<path d="M799.128 982.985L783.375 1015.01L775.261 1014.15L766.575 979.532L773.734 980.292L780.089 1007.75L792.016 982.23L799.128 982.985Z" fill="#00463C"/>
<path d="M813.516 984.646L809.448 1017.9L802.778 1017.09L806.846 983.83L813.516 984.646Z" fill="#00463C"/>
<path d="M842.544 1022.92L835.885 1022.02L823.912 997.181L820.809 1019.96L814.15 1019.06L818.68 985.81L825.338 986.718L837.304 1011.6L840.415 988.772L847.073 989.679L842.544 1022.92Z" fill="#00463C"/>
<path d="M848.917 1006.1C849.426 1002.84 850.608 1000.05 852.463 997.712C854.354 995.352 856.676 993.658 859.427 992.631C862.216 991.577 865.191 991.298 868.352 991.792C872.051 992.37 875.144 993.826 877.629 996.158C880.115 998.49 881.649 1001.42 882.231 1004.94L874.596 1003.75C874.084 1002.05 873.195 1000.69 871.927 999.687C870.692 998.684 869.173 998.042 867.37 997.76C865.442 997.458 863.647 997.647 861.986 998.327C860.362 998.98 858.994 1000.06 857.884 1001.57C856.805 1003.09 856.092 1004.95 855.746 1007.16C855.405 1009.35 855.514 1011.34 856.074 1013.14C856.671 1014.92 857.64 1016.38 858.983 1017.53C860.362 1018.66 862.016 1019.37 863.944 1019.67C865.747 1019.95 867.389 1019.8 868.872 1019.23C870.392 1018.62 871.655 1017.59 872.661 1016.13L880.296 1017.32C878.66 1020.53 876.303 1022.87 873.224 1024.33C870.182 1025.76 866.796 1026.19 863.065 1025.61C859.903 1025.11 857.153 1023.95 854.815 1022.13C852.513 1020.28 850.819 1017.96 849.734 1015.16C848.68 1012.38 848.408 1009.35 848.917 1006.1Z" fill="#00463C"/>
<path d="M896.777 997.026L891.162 1030.06L884.537 1028.93L890.152 995.9L896.777 997.026Z" fill="#00463C"/>
<path d="M927.368 1002.08C930.827 1002.74 933.734 1003.99 936.089 1005.83C938.475 1007.68 940.139 1010 941.079 1012.78C942.057 1015.54 942.235 1018.57 941.612 1021.87C940.989 1025.17 939.72 1027.93 937.805 1030.14C935.927 1032.32 933.54 1033.84 930.644 1034.7C927.778 1035.56 924.616 1035.66 921.157 1035.01L909.648 1032.84L915.859 999.914L927.368 1002.08ZM921.98 1029.35C925.439 1030 928.29 1029.56 930.533 1028.03C932.776 1026.5 934.22 1024.02 934.867 1020.6C935.513 1017.17 935.074 1014.32 933.549 1012.04C932.03 1009.74 929.541 1008.26 926.082 1007.61L921.413 1006.73L917.311 1028.47L921.98 1029.35Z" fill="#00463C"/>
<path d="M970.13 1037.98L956.962 1035.82L953.751 1041.76L946.787 1040.62L964.101 1009.46L971.822 1010.72L978.287 1045.78L971.277 1044.63L970.13 1037.98ZM969.199 1032.38L966.681 1017.76L959.631 1030.81L969.199 1032.38Z" fill="#00463C"/>
<path d="M1033.17 1017.9L1017.5 1049.96L1009.38 1049.12L1000.61 1014.53L1007.77 1015.27L1014.2 1042.72L1026.06 1017.17L1033.17 1017.9Z" fill="#00463C"/>
<path d="M1045.24 1019.23L1042.73 1052.64L1036.03 1052.14L1038.54 1018.73L1045.24 1019.23Z" fill="#00463C"/>
<path d="M1075.88 1054.56L1069.17 1054.22L1055.12 1030.5L1053.97 1053.46L1047.26 1053.12L1048.94 1019.61L1055.65 1019.95L1069.69 1043.72L1070.85 1020.71L1077.56 1021.05L1075.88 1054.56Z" fill="#00463C"/>
<path d="M1083.34 1038.22C1083.39 1034.92 1084.16 1031.99 1085.67 1029.42C1087.21 1026.81 1089.27 1024.81 1091.85 1023.4C1094.46 1021.97 1097.36 1021.27 1100.56 1021.31C1104.31 1021.36 1107.57 1022.36 1110.36 1024.32C1113.15 1026.28 1115.09 1028.96 1116.16 1032.37L1108.43 1032.26C1107.69 1030.65 1106.61 1029.44 1105.22 1028.62C1103.85 1027.8 1102.26 1027.38 1100.43 1027.36C1098.48 1027.33 1096.73 1027.77 1095.18 1028.68C1093.67 1029.56 1092.47 1030.82 1091.58 1032.47C1090.73 1034.13 1090.29 1036.07 1090.26 1038.31C1090.23 1040.52 1090.62 1042.48 1091.43 1044.18C1092.27 1045.86 1093.43 1047.17 1094.93 1048.12C1096.45 1049.04 1098.19 1049.51 1100.14 1049.53C1101.96 1049.56 1103.57 1049.18 1104.96 1048.4C1106.37 1047.58 1107.48 1046.38 1108.27 1044.79L1115.99 1044.89C1114.83 1048.3 1112.83 1050.95 1109.98 1052.83C1107.18 1054.68 1103.88 1055.58 1100.11 1055.53C1096.91 1055.49 1094.02 1054.73 1091.45 1053.26C1088.91 1051.75 1086.9 1049.69 1085.43 1047.08C1084 1044.47 1083.3 1041.52 1083.34 1038.22Z" fill="#00463C"/>
<path d="M1131.52 1021.37L1131.91 1054.88L1125.19 1054.95L1124.8 1021.45L1131.52 1021.37Z" fill="#00463C"/>
<path d="M1161.94 1020.81C1165.46 1020.66 1168.57 1021.21 1171.29 1022.47C1174.03 1023.72 1176.18 1025.6 1177.73 1028.09C1179.31 1030.55 1180.18 1033.46 1180.33 1036.82C1180.47 1040.18 1179.87 1043.15 1178.51 1045.74C1177.18 1048.3 1175.2 1050.32 1172.58 1051.81C1169.98 1053.3 1166.93 1054.13 1163.41 1054.28L1151.71 1054.8L1150.24 1021.32L1161.94 1020.81ZM1162.92 1048.59C1166.44 1048.43 1169.11 1047.35 1170.95 1045.35C1172.78 1043.35 1173.62 1040.6 1173.47 1037.12C1173.32 1033.64 1172.24 1030.96 1170.23 1029.09C1168.23 1027.2 1165.47 1026.32 1161.95 1026.48L1157.2 1026.69L1158.17 1048.79L1162.92 1048.59Z" fill="#00463C"/>
<path d="M1209.18 1044.72L1195.87 1045.7L1194.14 1052.23L1187.1 1052.75L1196.64 1018.4L1204.45 1017.83L1218.94 1050.4L1211.85 1050.92L1209.18 1044.72ZM1206.96 1039.49L1201.1 1025.87L1197.29 1040.21L1206.96 1039.49Z" fill="#00463C"/>
<path d="M1264.25 1011.64L1255.76 1046.3L1247.65 1047.21L1231.72 1015.28L1238.87 1014.48L1250.99 1039.93L1257.14 1012.44L1264.25 1011.64Z" fill="#00463C"/>
<path d="M1276.15 1010.03L1280.5 1043.25L1273.84 1044.12L1269.48 1010.9L1276.15 1010.03Z" fill="#00463C"/>
<path d="M1315.06 1038.7L1308.41 1039.69L1289.96 1019.2L1293.36 1041.94L1286.72 1042.93L1281.76 1009.75L1288.4 1008.76L1306.86 1029.29L1303.45 1006.51L1310.1 1005.51L1315.06 1038.7Z" fill="#00463C"/>
<path d="M1320.17 1021.42C1319.59 1018.17 1319.81 1015.14 1320.8 1012.33C1321.83 1009.49 1323.47 1007.13 1325.74 1005.27C1328.04 1003.37 1330.76 1002.14 1333.91 1001.58C1337.6 1000.93 1341 1001.3 1344.11 1002.7C1347.21 1004.1 1349.61 1006.38 1351.31 1009.52L1343.7 1010.87C1342.66 1009.43 1341.38 1008.43 1339.86 1007.89C1338.36 1007.34 1336.72 1007.23 1334.92 1007.55C1333 1007.89 1331.36 1008.65 1330.01 1009.83C1328.69 1010.97 1327.74 1012.44 1327.18 1014.23C1326.65 1016.01 1326.58 1018.01 1326.97 1020.21C1327.36 1022.39 1328.11 1024.24 1329.22 1025.76C1330.36 1027.25 1331.76 1028.32 1333.4 1028.97C1335.07 1029.59 1336.86 1029.72 1338.78 1029.38C1340.58 1029.06 1342.09 1028.39 1343.3 1027.36C1344.54 1026.3 1345.4 1024.91 1345.88 1023.2L1353.49 1021.86C1352.98 1025.42 1351.51 1028.4 1349.07 1030.78C1346.66 1033.12 1343.6 1034.62 1339.88 1035.28C1336.73 1035.84 1333.75 1035.64 1330.95 1034.67C1328.17 1033.67 1325.81 1032.02 1323.88 1029.73C1321.98 1027.43 1320.74 1024.66 1320.17 1021.42Z" fill="#00463C"/>
<path d="M1359.94 996.246L1366.35 1029.13L1359.75 1030.42L1353.34 997.533L1359.94 996.246Z" fill="#00463C"/>
<path d="M1391.11 989.814C1394.54 989.047 1397.71 989.047 1400.6 989.812C1403.52 990.57 1405.97 992.041 1407.93 994.226C1409.92 996.373 1411.27 999.087 1412.01 1002.37C1412.74 1005.65 1412.66 1008.68 1411.77 1011.47C1410.91 1014.22 1409.32 1016.56 1406.99 1018.48C1404.7 1020.4 1401.84 1021.75 1398.4 1022.51L1386.97 1025.06L1379.68 992.363L1391.11 989.814ZM1396.92 1016.99C1400.36 1016.23 1402.81 1014.7 1404.26 1012.4C1405.72 1010.11 1406.07 1007.26 1405.31 1003.86C1404.55 1000.46 1403.02 998.01 1400.72 996.523C1398.41 995.004 1395.54 994.628 1392.11 995.394L1387.47 996.428L1392.29 1018.03L1396.92 1016.99Z" fill="#00463C"/>
<path d="M1441.6 1005.46L1428.66 1008.72L1428.07 1015.45L1421.23 1017.17L1424.73 981.69L1432.32 979.781L1452.19 1009.38L1445.3 1011.11L1441.6 1005.46ZM1438.52 1000.69L1430.4 988.282L1429.11 1003.06L1438.52 1000.69Z" fill="#00463C"/>
</svg>
