<svg width="169" height="48" viewBox="0 0 169 48" fill="none" xmlns="http://www.w3.org/2000/svg">
<g clip-path="url(#clip0_340_171)">
<path d="M21.7242 1.69857H21.7175L0 14.8309V42.5313H23.9708V28.0975C23.9628 26.3533 23.6527 22.9253 21.5651 20.1816C18.7091 16.4101 13.7255 15.5219 13.5156 15.4857L11.976 15.2174L11.817 16.7764C11.7956 16.9897 11.3172 22.0479 14.1718 25.8193C16.218 28.5188 19.3533 29.7411 21.0466 30.2308V39.5984H2.92151V16.4893L24.508 3.4441L42.0785 14.407V45.0711H34.6264L34.6865 23.5586C34.6785 21.8144 34.3684 18.3864 32.2876 15.6427C29.4316 11.8725 24.4479 10.983 24.2381 10.9468L22.6985 10.6784L22.5394 12.2361C22.518 12.4495 22.0396 17.5089 24.8943 21.2791C26.9404 23.9799 30.0757 25.2021 31.7704 25.6919L31.6915 45.0684H8.82065V48H45V12.7768L24.5348 0L21.7242 1.69857ZM16.5 24.0456C15.2504 22.3967 14.8534 20.3211 14.7398 18.864C16.107 19.3631 17.9941 20.3023 19.2437 21.9499C20.4933 23.5975 20.8902 25.6811 21.0038 27.1382C19.646 26.6445 17.7589 25.708 16.5 24.0456ZM27.2157 19.5067C25.9661 17.8578 25.5692 15.7822 25.4556 14.3251C26.8228 14.8256 28.7099 15.7648 29.9595 17.411C31.2091 19.0572 31.6073 21.1409 31.7196 22.5979C30.3564 22.1069 28.4747 21.1691 27.2157 19.5067Z" fill="#00463C"/>
<path d="M77.5036 16.5843C75.8394 14.8605 73.7698 13.9991 71.2949 14H64V32H71.2949C73.7698 32 75.8394 31.1386 77.5036 29.4157C79.1679 27.6928 80 25.5547 80 23.0013C80 20.4462 79.1679 18.3072 77.5036 16.5843ZM74.3417 26.304C73.5569 27.1363 72.5413 27.552 71.2949 27.5511H68.7101V18.4489H71.2949C72.5449 18.4489 73.5604 18.8646 74.3417 19.696C75.1229 20.5274 75.5153 21.6291 75.5189 23.0013C75.5189 24.3726 75.1265 25.4735 74.3417 26.304Z" fill="white"/>
<path d="M85.7752 14L80 32H84.8506L85.6 29.4036H91.4249L92.1755 32H97L91.2248 14H85.7752ZM86.7508 25.443L88.5007 19.3233L90.2753 25.443H86.7508Z" fill="white"/>
<path d="M111.488 26.3942L108.011 14H103L108.777 32H114.223L120 14H114.989L111.488 26.3942Z" fill="white"/>
<path d="M127 14H122V32H127V14Z" fill="white"/>
<path d="M138.582 23.0511L132.45 14H129V32H133.444V22.9489L139.574 32H143V14H138.582V23.0511Z" fill="white"/>
<path d="M155.289 17.5482C156.074 17.5368 156.849 17.7293 157.541 18.1079C158.183 18.453 158.709 18.9846 159.055 19.6356L163 17.3208C162.214 15.9971 161.098 14.9103 159.767 14.1713C158.398 13.3922 156.856 12.9887 155.289 13.0002C152.607 13.0002 150.389 13.908 148.632 15.7236C146.876 17.5391 145.998 19.7963 146 22.4952C146 25.2021 146.878 27.4625 148.633 29.2763C150.389 31.09 152.608 31.9978 155.29 31.9996C156.86 32.0145 158.407 31.6154 159.782 30.8408C161.115 30.0996 162.226 29.0039 163 27.6695L159.055 25.3274C158.715 25.9876 158.187 26.5272 157.541 26.8756C156.849 27.2542 156.074 27.4467 155.289 27.4353C153.863 27.4353 152.713 26.9814 151.841 26.0736C150.968 25.1658 150.531 23.973 150.529 22.4952C150.529 21.02 150.966 19.8272 151.841 18.9167C152.715 18.0062 153.864 17.55 155.289 17.5482Z" fill="white"/>
<path d="M169 14H164V32H169V14Z" fill="white"/>
<path d="M69.2495 39.3674C68.7261 38.457 67.9577 38.0013 66.9442 38.0004C66.5562 37.9937 66.171 38.0741 65.8128 38.2366C65.4545 38.3991 65.1308 38.6401 64.8617 38.9448C64.3091 39.5639 64 40.3934 64 41.2569C64 42.1204 64.3091 42.9498 64.8617 43.569C65.1308 43.8736 65.4545 44.1147 65.8128 44.2772C66.171 44.4396 66.5562 44.52 66.9442 44.5134C67.956 44.5134 68.7244 44.0577 69.2495 43.1463V44.1228C69.2495 44.7608 69.0612 45.2681 68.6847 45.6447C68.3082 46.0213 67.792 46.2073 67.1363 46.2027C66.1168 46.2027 65.4359 45.826 65.0935 45.0728L64.4327 45.4829C64.8963 46.4928 65.7975 46.9983 67.1363 46.9992C67.8731 47.0169 68.5907 46.7428 69.156 46.2278C69.7195 45.7144 70.0009 45.0105 70 44.1158V38.1552H69.2495V39.3674ZM68.6002 43.0027C68.1745 43.4602 67.6005 43.7168 67.0025 43.7168C66.4044 43.7168 65.8304 43.4602 65.4048 43.0027C64.99 42.5346 64.7582 41.9095 64.7582 41.259C64.7582 40.6085 64.99 39.9834 65.4048 39.5153C65.8299 39.0567 66.4041 38.7995 67.0025 38.7995C67.6008 38.7995 68.175 39.0567 68.6002 39.5153C69.0149 39.9834 69.2467 40.6085 69.2467 41.259C69.2467 41.9095 69.0149 42.5346 68.6002 43.0027Z" fill="white"/>
<path d="M74.8853 39.0688V38.0929H74V44H74.8853V40.7103C74.8853 40.0323 75.0857 39.5359 75.4865 39.2213C75.9067 38.9038 76.4471 38.7376 77 38.7558V38C76.001 37.9956 75.2961 38.3519 74.8853 39.0688Z" fill="white"/>
<path d="M83.0805 38C82.1758 38 81.4367 38.2861 80.863 38.8583C80.579 39.141 80.3563 39.4761 80.2083 39.8438C80.0602 40.2116 79.9898 40.6044 80.0012 40.9991C80.0012 41.8703 80.2924 42.5877 80.8749 43.1514C81.4574 43.7151 82.212 43.9977 83.1387 43.9995C83.6726 44.0093 84.2002 43.8867 84.6717 43.6435C85.1057 43.4192 85.4711 43.0877 85.7308 42.6824L85.0477 42.2969C84.875 42.5943 84.6194 42.8383 84.3103 43.001C83.9537 43.1877 83.5529 43.2803 83.148 43.2696C82.5724 43.2868 82.0092 43.1046 81.5594 42.7556C81.1274 42.4116 80.8536 41.9153 80.7981 41.3756H85.9757C85.9916 41.224 85.9995 41.1057 85.9995 41.0209C86.0133 40.2402 85.7251 39.4829 85.192 38.8982C84.6563 38.2994 83.9524 38 83.0805 38ZM80.8034 40.6444C80.864 40.1055 81.1324 39.6088 81.5548 39.2541C81.9772 38.8994 82.5223 38.713 83.0805 38.7324C83.5963 38.7259 84.0963 38.9054 84.4837 39.2361C84.8844 39.5728 85.124 40.0439 85.2026 40.6496L80.8034 40.6444Z" fill="white"/>
<path d="M92.0779 38C91.1729 38 90.4334 38.2861 89.8595 38.8583C89.5761 39.1413 89.3541 39.4766 89.2066 39.8443C89.0592 40.212 88.9894 40.6047 89.0013 40.9991C89.0013 41.8703 89.2927 42.5877 89.8754 43.1514C90.4581 43.7151 91.2131 43.9977 92.1401 43.9995C92.6742 44.0093 93.2021 43.8867 93.6738 43.6435C94.108 43.4192 94.4735 43.0877 94.7333 42.6824L94.0486 42.2969C93.8769 42.5946 93.6215 42.8388 93.3122 43.001C92.9555 43.1877 92.5546 43.2803 92.1494 43.2696C91.5736 43.2868 91.0102 43.1046 90.5601 42.7556C90.1273 42.4123 89.8525 41.9165 89.7959 41.3769H94.9757C94.9916 41.2252 94.9995 41.107 94.9995 41.0222C95.0133 40.2415 94.725 39.4842 94.1916 38.8995C93.6557 38.2998 92.9511 38 92.0779 38ZM89.7959 40.6444C89.8565 40.1055 90.125 39.6088 90.5476 39.2541C90.9702 38.8994 91.5155 38.713 92.0739 38.7324C92.59 38.7262 93.0901 38.9056 93.4778 39.2361C93.8786 39.5728 94.1184 40.0439 94.1969 40.6496L89.7959 40.6444Z" fill="white"/>
<path d="M101.722 38C100.853 38 100.201 38.3507 99.7666 39.0522V38.1315H99V43.9908H99.7666V40.929C99.7666 40.1872 99.9405 39.6388 100.288 39.2836C100.466 39.1054 100.679 38.966 100.913 38.8742C101.147 38.7823 101.397 38.7399 101.648 38.7497C102.151 38.7497 102.542 38.8943 102.821 39.1837C103.1 39.473 103.238 39.8794 103.233 40.4029V44H104V40.4029C104 39.6672 103.797 39.0833 103.391 38.651C102.985 38.2188 102.429 38.0018 101.722 38Z" fill="white"/>
<path d="M115.898 40.8922C115.592 40.7894 115.285 40.6956 114.979 40.6109C114.702 40.5408 114.438 40.4209 114.199 40.2563C114.099 40.1927 114.017 40.1021 113.96 39.9935C113.904 39.885 113.875 39.7625 113.877 39.6383C113.873 39.5054 113.901 39.3735 113.959 39.256C114.017 39.1385 114.103 39.0395 114.209 38.9689C114.445 38.8076 114.721 38.7257 115.001 38.7338C115.649 38.7338 116.076 39.001 116.284 39.5355L116.872 39.1693C116.716 38.8126 116.462 38.515 116.144 38.3162C115.797 38.1011 115.402 37.9922 115.001 38.0015C114.525 37.9825 114.059 38.1491 113.69 38.4704C113.526 38.6099 113.394 38.7877 113.305 38.9901C113.215 39.1925 113.169 39.4142 113.172 39.6383C113.164 39.8106 113.189 39.9828 113.244 40.1448C113.3 40.3069 113.384 40.4557 113.493 40.5826C113.708 40.823 113.976 41.0001 114.273 41.0965C114.579 41.1993 114.887 41.2931 115.193 41.3766C115.47 41.4478 115.734 41.5681 115.974 41.7325C116.073 41.7963 116.155 41.887 116.211 41.9955C116.268 42.104 116.296 42.2264 116.294 42.3504C116.302 42.4896 116.272 42.6281 116.21 42.7504C116.148 42.8728 116.055 42.9741 115.941 43.0429C115.673 43.2003 115.37 43.2771 115.064 43.2652C114.74 43.2747 114.419 43.1856 114.14 43.0083C113.889 42.8484 113.698 42.5993 113.6 42.3042L113 42.6819C113.148 43.0784 113.412 43.4124 113.754 43.6327C114.148 43.8866 114.603 44.0137 115.063 43.9988C115.633 43.9988 116.099 43.8459 116.459 43.5402C116.631 43.4022 116.769 43.2222 116.863 43.0153C116.957 42.8084 117.004 42.5805 116.999 42.3504C117.013 42.0026 116.898 41.663 116.678 41.4061C116.464 41.1662 116.195 40.9893 115.898 40.8922Z" fill="white"/>
<path d="M123.159 42.7796L120.858 38H120L122.749 43.7435L122.589 44.0985C122.206 44.9658 121.647 45.3615 120.913 45.2854V45.9942C121.44 46.0328 121.963 45.8778 122.369 45.5623C122.827 45.2115 123.176 44.7525 123.379 44.2331L126 38H125.142L123.159 42.7796Z" fill="white"/>
<path d="M131.898 40.8922C131.592 40.7894 131.285 40.6956 130.979 40.6108C130.702 40.5408 130.438 40.4209 130.199 40.2562C130.1 40.1924 130.018 40.1017 129.961 39.9932C129.905 39.8847 129.877 39.7623 129.878 39.6383C129.874 39.5054 129.902 39.3735 129.96 39.256C130.018 39.1385 130.104 39.0395 130.21 38.9689C130.445 38.8076 130.721 38.7257 131.001 38.7338C131.649 38.7338 132.076 39.001 132.284 39.5355L132.872 39.1693C132.716 38.8125 132.462 38.515 132.144 38.3162C131.797 38.1011 131.402 37.9922 131.001 38.0014C130.525 37.9826 130.06 38.1492 129.691 38.4704C129.527 38.6099 129.396 38.7877 129.306 38.9901C129.216 39.1925 129.17 39.4142 129.173 39.6383C129.158 39.9861 129.274 40.3257 129.493 40.5826C129.708 40.823 129.976 41.0001 130.273 41.0965C130.581 41.1993 130.887 41.2926 131.193 41.3766C131.47 41.4474 131.734 41.5677 131.974 41.7325C132.073 41.7963 132.155 41.887 132.211 41.9955C132.268 42.104 132.296 42.2264 132.294 42.3504C132.302 42.4896 132.272 42.6281 132.21 42.7504C132.148 42.8728 132.055 42.9741 131.941 43.0429C131.673 43.2003 131.37 43.2771 131.064 43.2652C130.74 43.2746 130.419 43.1855 130.14 43.0083C129.889 42.8484 129.698 42.5993 129.6 42.3042L129 42.6819C129.148 43.0782 129.413 43.412 129.754 43.6327C130.148 43.8866 130.603 44.0137 131.063 43.9988C131.634 43.9988 132.1 43.8459 132.459 43.5402C132.631 43.4022 132.769 43.2222 132.863 43.0153C132.957 42.8084 133.004 42.5804 132.999 42.3504C133.013 42.0026 132.898 41.663 132.678 41.4061C132.464 41.1657 132.195 40.9886 131.898 40.8922Z" fill="white"/>
<path d="M138.174 36L137.335 36.2475V37.7392H136V38.5317H137.335V42.2855C137.335 43.0038 137.558 43.4908 138.003 43.7466C138.448 44.0024 139.114 44.0645 140 43.9329V43.2142C139.594 43.2308 139.255 43.2369 138.983 43.2322C138.871 43.2387 138.759 43.2223 138.653 43.184C138.548 43.1457 138.453 43.0863 138.372 43.0098C138.237 42.8652 138.17 42.6238 138.17 42.2855V38.5317H140V37.7392H138.174V36Z" fill="white"/>
<path d="M146.08 38C145.175 38 144.436 38.2861 143.863 38.8583C143.579 39.141 143.356 39.4761 143.208 39.8438C143.06 40.2116 142.99 40.6044 143.001 40.9991C143.001 41.8703 143.292 42.5877 143.875 43.1514C144.457 43.7151 145.212 43.9977 146.139 43.9995C146.673 44.0093 147.2 43.8867 147.672 43.6435C148.106 43.4192 148.471 43.0877 148.731 42.6824L148.046 42.2969C147.875 42.5946 147.619 42.8388 147.31 43.001C146.954 43.1877 146.553 43.2803 146.148 43.2696C145.572 43.2868 145.009 43.1046 144.559 42.7556C144.127 42.4116 143.854 41.9153 143.798 41.3756H148.976C148.992 41.224 149 41.1057 149 41.0209C149.013 40.2402 148.725 39.4829 148.192 38.8982C147.657 38.2994 146.953 38 146.08 38ZM143.803 40.6444C143.864 40.1055 144.132 39.6088 144.555 39.2541C144.977 38.8994 145.522 38.713 146.08 38.7324C146.596 38.7262 147.096 38.9056 147.484 39.2361C147.884 39.5728 148.124 40.0439 148.203 40.6496L143.803 40.6444Z" fill="white"/>
<path d="M158.655 38.002C157.758 38.002 157.083 38.3572 156.633 39.0674C156.266 38.3563 155.633 38.0012 154.736 38.002C154.351 37.9917 153.971 38.0786 153.634 38.2536C153.298 38.4285 153.018 38.6851 152.824 38.9964V38.1479H152V44H152.824V40.7527C152.824 40.074 152.999 39.5709 153.35 39.2434C153.514 39.084 153.712 38.958 153.931 38.8733C154.15 38.7886 154.385 38.7469 154.622 38.7508C154.821 38.7418 155.02 38.7738 155.205 38.8446C155.389 38.9154 155.555 39.0233 155.69 39.1606C155.952 39.4339 156.083 39.828 156.084 40.3429V43.9947H156.908V40.7527C156.908 40.0662 157.068 39.5609 157.389 39.2368C157.549 39.0754 157.745 38.9484 157.962 38.8645C158.18 38.7806 158.415 38.7418 158.65 38.7508C158.855 38.7428 159.06 38.7758 159.25 38.8475C159.441 38.9193 159.613 39.0283 159.756 39.1672C160.036 39.4448 160.176 39.8367 160.176 40.3429V43.9947H161V40.3429C161 39.6257 160.786 39.0564 160.357 38.6352C160.137 38.423 159.872 38.2569 159.578 38.1478C159.285 38.0386 158.971 37.989 158.655 38.002Z" fill="white"/>
<path d="M168.674 41.4061C168.459 41.1657 168.191 40.9886 167.894 40.8922C167.586 40.7894 167.28 40.6956 166.973 40.6108C166.696 40.5408 166.432 40.4209 166.193 40.2562C166.094 40.1924 166.012 40.1017 165.955 39.9932C165.899 39.8847 165.871 39.7623 165.873 39.6382C165.868 39.5054 165.896 39.3735 165.954 39.256C166.012 39.1385 166.099 39.0394 166.204 38.9689C166.44 38.8076 166.715 38.7257 166.995 38.7338C167.644 38.7338 168.072 39.001 168.278 39.5355L168.866 39.1693C168.712 38.8131 168.461 38.5155 168.146 38.3162C167.798 38.1013 167.402 37.9924 167.001 38.0014C166.526 37.9827 166.06 38.1493 165.691 38.4704C165.527 38.6099 165.396 38.7877 165.306 38.9901C165.216 39.1925 165.17 39.4142 165.173 39.6382C165.158 39.986 165.274 40.3257 165.493 40.5826C165.708 40.823 165.976 41 166.273 41.0965C166.581 41.1992 166.887 41.293 167.194 41.3766C167.471 41.4476 167.734 41.5679 167.974 41.7324C168.073 41.7963 168.155 41.887 168.212 41.9955C168.268 42.1039 168.296 42.2264 168.295 42.3504C168.302 42.4896 168.272 42.6281 168.21 42.7504C168.148 42.8727 168.055 42.974 167.942 43.0429C167.674 43.2003 167.371 43.2771 167.066 43.2652C166.741 43.2745 166.42 43.1854 166.14 43.0082C165.889 42.8483 165.698 42.5992 165.6 42.3042L165 42.6819C165.148 43.0782 165.413 43.412 165.754 43.6326C166.149 43.8868 166.604 44.0139 167.064 43.9988C167.635 43.9988 168.1 43.8459 168.459 43.5401C168.631 43.4021 168.77 43.2222 168.864 43.0153C168.958 42.8084 169.004 42.5804 168.999 42.3504C169.005 42.1778 168.98 42.0056 168.924 41.8436C168.868 41.6815 168.783 41.5329 168.674 41.4061Z" fill="white"/>
</g>
<defs>
<clipPath id="clip0_340_171">
<rect width="169" height="48" fill="white"/>
</clipPath>
</defs>
</svg>
