<svg width="38" height="40" viewBox="0 0 38 40" fill="none" xmlns="http://www.w3.org/2000/svg">
<g clip-path="url(#clip0_373_209)">
<path d="M18.3449 1.41547H18.3392L0 12.3591V35.4428H20.242V23.4146C20.2352 21.9611 19.9734 19.1044 18.2106 16.818C15.7988 13.6751 11.5904 12.9349 11.4132 12.9047L10.1131 12.6811L9.97879 13.9803C9.96074 14.1581 9.55671 18.3732 11.9673 21.5161C13.6952 23.7657 16.3428 24.7842 17.7727 25.1923V32.9987H2.46705V13.7411L20.6957 2.87008L35.533 12.0058V37.5593H29.2401L29.2908 19.6322C29.2841 18.1787 29.0222 15.322 27.2651 13.0356C24.8533 9.89378 20.6449 9.1525 20.4677 9.12232L19.1676 8.8987L19.0333 10.1968C19.0152 10.3746 18.6112 14.5908 21.0218 17.7326C22.7497 19.9832 25.3973 21.0018 26.8283 21.4099L26.7617 37.557H7.44855V40H38V10.6474L20.7182 0L18.3449 1.41547ZM13.9333 20.038C12.8781 18.6639 12.5429 16.9343 12.447 15.72C13.6015 16.136 15.195 16.9186 16.2502 18.2916C17.3055 19.6646 17.6406 21.4009 17.7366 22.6152C16.5899 22.2037 14.9964 21.4233 13.9333 20.038ZM22.9822 16.2556C21.9269 14.8815 21.5918 13.1518 21.4958 11.9376C22.6504 12.3547 24.2439 13.1373 25.2991 14.5092C26.3543 15.881 26.6906 17.6174 26.7854 18.8316C25.6343 18.4224 24.0453 17.6409 22.9822 16.2556Z" fill="white"/>
</g>
<defs>
<clipPath id="clip0_373_209">
<rect width="38" height="40" fill="white"/>
</clipPath>
</defs>
</svg>
