<svg width="45" height="48" viewBox="0 0 45 48" fill="none" xmlns="http://www.w3.org/2000/svg">
<path d="M21.7242 1.69857H21.7175L0 14.8309V42.5313H23.9708V28.0975C23.9628 26.3533 23.6527 22.9253 21.5651 20.1816C18.7091 16.4101 13.7255 15.5219 13.5156 15.4857L11.976 15.2174L11.817 16.7764C11.7956 16.9897 11.3172 22.0479 14.1718 25.8193C16.218 28.5188 19.3533 29.7411 21.0466 30.2308V39.5984H2.92151V16.4893L24.508 3.4441L42.0785 14.407V45.0711H34.6264L34.6865 23.5586C34.6785 21.8144 34.3684 18.3864 32.2876 15.6427C29.4316 11.8725 24.4479 10.983 24.2381 10.9468L22.6985 10.6784L22.5394 12.2361C22.518 12.4495 22.0396 17.5089 24.8943 21.2791C26.9404 23.9799 30.0757 25.2021 31.7704 25.6919L31.6915 45.0684H8.82065V48H45V12.7768L24.5348 0L21.7242 1.69857ZM16.5 24.0456C15.2504 22.3967 14.8534 20.3211 14.7398 18.864C16.107 19.3631 17.9941 20.3023 19.2437 21.9499C20.4933 23.5975 20.8902 25.6811 21.0038 27.1382C19.646 26.6445 17.7589 25.708 16.5 24.0456ZM27.2157 19.5067C25.9661 17.8578 25.5692 15.7822 25.4556 14.3251C26.8228 14.8256 28.7099 15.7648 29.9595 17.411C31.2091 19.0572 31.6073 21.1409 31.7196 22.5979C30.3564 22.1069 28.4747 21.1691 27.2157 19.5067Z" fill="#026858"/>
</svg>
